<svg width="113" height="101" viewBox="0 0 113 101" fill="none" xmlns="http://www.w3.org/2000/svg">
<g filter="url(#filter0_d_1_42)">
<path d="M99.125 60.7542C99.125 57.8736 96.5821 55.5168 93.4741 55.5168H82.1723V65.9916H93.4741C96.5821 65.9916 99.125 63.6348 99.125 60.7542ZM93.4741 76.4665H82.1723V86.9413H93.4741C96.5821 86.9413 99.125 84.5845 99.125 81.7039C99.125 78.8233 96.5821 76.4665 93.4741 76.4665ZM48.2668 60.7542H36.965V81.7039H48.2668C48.2668 87.4651 53.3526 92.1788 59.5686 92.1788H76.5214V50.2793H59.5686C53.3526 50.2793 48.2668 54.993 48.2668 60.7542Z" fill="#F02E2C"/>
<path d="M14.8883 53.8032C14.8883 47.7052 19.4393 42.7159 25.0017 42.7159H32.5867C42.346 42.7159 50.285 34.0125 50.285 23.3133C50.285 12.6141 42.346 3.91061 32.5867 3.91061H14.8883C12.1072 3.91061 9.83166 6.40524 9.83166 9.45423C9.83166 12.5032 12.1072 14.9979 14.8883 14.9979H32.5867C36.7837 14.9979 40.1717 18.7121 40.1717 23.3133C40.1717 27.9145 36.7837 31.6287 32.5867 31.6287H25.0017C13.8264 31.6287 4.77499 41.5518 4.77499 53.8032C4.77499 66.0546 13.8264 75.9777 25.0017 75.9777H35.115V64.8904H25.0017C19.4393 64.8904 14.8883 59.9012 14.8883 53.8032Z" fill="#F02E2C"/>
</g>
<defs>
<filter id="filter0_d_1_42" x="-2" y="0" width="119" height="108" filterUnits="userSpaceOnUse" color-interpolation-filters="sRGB">
<feFlood flood-opacity="0" result="BackgroundImageFix"/>
<feColorMatrix in="SourceAlpha" type="matrix" values="0 0 0 0 0 0 0 0 0 0 0 0 0 0 0 0 0 0 127 0" result="hardAlpha"/>
<feOffset dy="4"/>
<feGaussianBlur stdDeviation="2"/>
<feComposite in2="hardAlpha" operator="out"/>
<feColorMatrix type="matrix" values="0 0 0 0 0 0 0 0 0 0 0 0 0 0 0 0 0 0 0.25 0"/>
<feBlend mode="normal" in2="BackgroundImageFix" result="effect1_dropShadow_1_42"/>
<feBlend mode="normal" in="SourceGraphic" in2="effect1_dropShadow_1_42" result="shape"/>
</filter>
</defs>
</svg>
